<svg xmlns="http://www.w3.org/2000/svg" data-name="Layer 1" width="936.26767" height="604" viewBox="0 0 936.26767 604"><path d="M441 95h-88a5 5 0 0 1 0-10h88a5 5 0 0 1 0 10ZM509 130H353a5 5 0 0 1 0-10h156a5 5 0 0 1 0 10ZM470 165H353a5 5 0 0 1 0-10h117a5 5 0 0 1 0 10ZM509 200H353a5 5 0 0 1 0-10h156a5 5 0 0 1 0 10Z" fill="#ccc"/><circle cx="149.30374" cy="140.54547" r="89.4701" fill="#6c63ff"/><path d="M154.30384 56.12441h-10v-10h10Zm-8-2h6v-6h-6Z" fill="#3f3d56"/><path fill="#3f3d56" d="M152.53923 50.12441h53v2h-53z"/><circle cx="205.53903" cy="51.12441" r="2.08275" fill="#3f3d56"/><path fill="#3f3d56" d="M93.53923 50.12441h52v2h-52z"/><circle cx="93.53903" cy="51.12441" r="2.08275" fill="#3f3d56"/><path d="M243.53924 145.31h-10v-10h10Zm-8-2h6v-6h-6Z" fill="#3f3d56"/><path fill="#3f3d56" d="M237.53925 144.54531h2v51.99998h-2z"/><circle cx="238.53903" cy="196.54545" r="2.08276" fill="#3f3d56"/><path fill="#3f3d56" d="M237.53925 84.54531h2v52h-2z"/><circle cx="238.53903" cy="84.54546" r="2.08276" fill="#3f3d56"/><path d="M64.53924 145.31h-10v-10h10Zm-8-2h6v-6h-6Z" fill="#3f3d56"/><path fill="#3f3d56" d="M58.53924 144.54531h2v51.99998h-2z"/><circle cx="59.53904" cy="196.54545" r="2.08276" fill="#3f3d56"/><path fill="#3f3d56" d="M58.53924 82.54531h2v54h-2z"/><circle cx="59.53904" cy="84.54546" r="2.08275" fill="#3f3d56"/><path d="M154.30384 235.1244h-10v-10h10Zm-8-2h6v-6h-6Z" fill="#3f3d56"/><path fill="#3f3d56" d="M153.53923 229.1244h53v2h-53z"/><circle cx="205.53903" cy="230.1244" r="2.08276" fill="#3f3d56"/><path fill="#3f3d56" d="M93.53923 229.1244h52v2h-52z"/><circle cx="93.53903" cy="230.1244" r="2.08276" fill="#3f3d56"/><path d="M562 305H17a17.01909 17.01909 0 0 1-17-17V17A17.01909 17.01909 0 0 1 17 0h545a17.01917 17.01917 0 0 1 17 17v271a17.01917 17.01917 0 0 1-17 17ZM17 2A15.017 15.017 0 0 0 2 17v271a15.017 15.017 0 0 0 15 15h545a15.017 15.017 0 0 0 15-15V17a15.017 15.017 0 0 0-15-15Z" fill="#3f3d56"/><circle cx="330" cy="90" r="5" fill="#ccc"/><circle cx="330" cy="125" r="5" fill="#ccc"/><circle cx="330" cy="160" r="5" fill="#ccc"/><circle cx="330" cy="195" r="5" fill="#ccc"/><path d="M438.0575 239.02766h-30.537a3.7649 3.7649 0 0 1-3.76071-3.76071v-36.03569a3.7649 3.7649 0 0 1 3.76071-3.76072h30.537a3.7649 3.7649 0 0 1 3.76071 3.76072V235.267a3.7649 3.7649 0 0 1-3.76071 3.76066Z" fill="#ff6584"/><path d="m756.80584 602.5498-3.39014.83c1.52979.22 3.06006.43 4.58985.62h56.54q6.36035-.81 12.6499-2a197.13582 197.13582 0 0 0 70.96-28.11c13.27-8.63 25.92041-19.24 32.79-33.49 9.33008-19.35 6.07031-43.85-7.25-60.7a60.77248 60.77248 0 0 0-17.58985-15c-1.00976-.58-2.02978-1.13-3.06982-1.65a66.06033 66.06033 0 0 0-36.49023-6.68c-21.3501 2.33-41.04981 15.37-52.41993 33.59-12.56982 20.12-14.98 44.74-17.08007 68.37-3.81006-12.26-18.10987-19.75-30.65967-17.04-12.54 2.7-22.22022 14.41-23.78028 27.15-1.52978 12.46 4.12989 25.25 13.56006 33.56.20999.18.41995.37.64018.55Z" fill="#f2f2f2"/><path d="M800.40544 603.99981h2.83008a2.05915 2.05915 0 0 0 .62988-.85c.16016-.38.31006-.77.48047-1.15a345.30409 345.30409 0 0 1 101.08984-135.82 1.61383 1.61383 0 0 0 .66992-1.48 2.17771 2.17771 0 0 0-3.52-1.37 345.76934 345.76934 0 0 0-48.25 47.92 347.37524 347.37524 0 0 0-54.33007 90.75c-.00977.03-.02.05-.02979.08a1.55714 1.55714 0 0 0 .42967 1.92Z" fill="#fff"/><path d="M701.2732 382.03467a11.39823 11.39823 0 0 1 11.3855-11.38526c.11035 0 .21875.00586.32739.0127l35.20825-28.06445-25.23145-25.23145a11.12934 11.12934 0 1 1 15.73926-15.73921l40.55493 40.55469-55.21924 40.15913a11.38437 11.38437 0 0 1-22.76465-.30615ZM659.944 590.049l-11.907-4.445 11.48-48.043 17.573 6.561-17.146 45.927z" fill="#ffb8b8"/><path d="m640.2902 578.83584 23.47578 8.7641-5.39779 14.45867-37.42244-13.97074.19117-.51205a14.88686 14.88686 0 0 1 19.15329-8.73998Z" fill="#2f2e41"/><path fill="#ffb8b8" d="M767.066 590.229h-12.71l-6.046-49.024 18.759.001-.003 49.023z"/><path d="M744.73127 586.59729h25.05836v15.43338h-39.94522v-.54652a14.88686 14.88686 0 0 1 14.88686-14.88686ZM750.22706 571.59131a4.49341 4.49341 0 0 1-1.363-3.5083c2.26782-37.44043-17.46558-105.49512-23.56763-125.46143a3.41784 3.41784 0 0 0-2.365-2.32715 3.5465 3.5465 0 0 0-3.31592.74561c-32.96142 28.71191-42.79834 109.71582-44.43579 125.6626a4.49391 4.49391 0 0 1-5.03345 3.998l-16.45143-2.05611a4.50022 4.50022 0 0 1-3.84009-5.4165l43.136-199.44092.02612-.12012.07861-.09472c10.43091-12.51758 40.65308-7.64356 41.93482-7.43018l.13305.022.10376.08643c38.81031 32.18408 36.84327 181.36621 36.05494 210.94482a4.50054 4.50054 0 0 1-4.07154 4.353l-13.47314 1.28271q-.21534.02052-.42969.02051a4.48767 4.48767 0 0 1-3.12062-1.26025Z" fill="#2f2e41"/><circle cx="727.41896" cy="251.28693" r="24.56103" fill="#ffb8b8"/><path d="M751.53535 297.54289s-22.80763-26.95447-41.46843-5.18355a74.11256 74.11256 0 0 0-17.80945 50.43223l.70374 23.69256 43.02349-6.73862Z" fill="#6c63ff"/><path d="m723.43765 255.536-10.55231-12.43163c-2.71945-3.20377-5.56392-6.69336-5.94852-10.87806-.4216-4.58723 2.36858-9.04613 6.18309-11.62875s8.49855-3.55453 13.09129-3.91115c8.5182-.66142 17.4817.74628 24.48419 5.64142s11.5838 13.73263 9.87639 22.10413c-1.3444 6.59167-6.29828 12.90609-4.37281 19.352 2.1068 7.053 10.74665 9.21692 17.80071 11.32015 11.8404 3.5303 23.1464 10.48021 29.35159 21.16448s6.17809 25.4167-2.09358 34.59479c-5.35613 5.94307-13.43444 8.94842-21.42216 9.40066s-15.93817-1.42893-23.51357-4.00215c-6.97658-2.36983-13.87792-5.41792-19.37047-10.32921s-9.44929-11.93945-9.278-19.30556c.16321-7.01989 3.92356-13.41447 5.46828-20.26424a33.25514 33.25514 0 0 0-10.39525-31.73" fill="#2f2e41"/><path d="M697.3575 477.3348h-30.537a3.76489 3.76489 0 0 1-3.76071-3.76071V437.5384a3.7649 3.7649 0 0 1 3.76071-3.76072h30.537a3.7649 3.7649 0 0 1 3.76071 3.76072v36.03569a3.76489 3.76489 0 0 1-3.76071 3.76071Z" fill="#6c63ff"/><path d="M688.30713 446.5127a11.11651 11.11651 0 0 1 2.20386-14.50586l16.71436-131.69336a11.68181 11.68181 0 0 1 11.56543-10.19239l.15576.001a11.65978 11.65978 0 0 1 11.32055 13.73291l-23.501 130.06152.00464.00635a11.16929 11.16929 0 0 1-4.38941 16.77686 10.879 10.879 0 0 1-4.5271.97363 11.32315 11.32315 0 0 1-9.54709-5.16066Z" fill="#ffb8b8"/><path d="M854.42126 604h-257a1 1 0 0 1 0-2h257a1 1 0 1 1 0 2Z" fill="#3f3d56"/></svg>