<svg xmlns="http://www.w3.org/2000/svg" data-name="Layer 1" width="821.75892" height="601.73303" viewBox="0 0 821.75892 601.73303"><path fill="#ffb6b6" d="m800.344 584.002-8.144 2.605-13.921-30.171 12.019-3.845 10.046 31.411z"/><path d="m804.94546 591.23151-26.258 8.39835-.10623-.33212a10.731 10.731 0 0 1 6.951-13.48932l.00064-.00021 3.63236-5.173 10.113.77673 2.29217-.73312Z" fill="#2f2e41"/><path fill="#ffb6b6" d="M723.134 592.124h-8.55l-4.067-32.978h12.618l-.001 32.978z"/><path d="m725.31446 600.41206-27.56839-.001v-.3487a10.731 10.731 0 0 1 10.73039-10.73023h.00069l5.03573-3.82037 9.39555 3.82095 2.40655.0001Z" fill="#2f2e41"/><path d="M682.29766 251.32351a7.01321 7.01321 0 0 0 2.11355 10.54416l-4.10112 24.5828 11.83767-5.25352 2.0797-22.53884a7.05121 7.05121 0 0 0-11.9298-7.3346Z" fill="#ffb6b6"/><path d="M790.22215 455.24672s1.99414-25.96961-5.07373-30.79248c-7.06738-4.82288-65.33984-7.25092-65.33984-7.25092l-3.61816 4.75843s-.32764 2.22216-5.81543 20.32605l-2.23536 101.05291c-.22168 9.85208-1.93945 22.23007 2.1753 24.76068l2 10h11l6.07715-16.81253a22.10741 22.10741 0 0 0 3.1665-14.16244l3.31836-14.84253a1.79718 1.79718 0 0 1-.47217-.84656 8.66813 8.66813 0 0 1 1.38672-6.33557 11.17647 11.17647 0 0 1 .9668-1.2326l12.15771-54.38184 16.39893 63.61407 10.12109 22.59592c-.99512 2.36862-.334 4.5145 1.47949 6.50549-.67383 1.8526 2.23877 3.15284 3.48975 5.54844l3.90967 7.35015 11-6 1-6c.666-1.7792-1.125-2.95877-2.44483-6.65411 2.46241-2.61548 2.32862-5.16244-.04492-7.65039l-4.15842-17.9311-.04833-8.22019-.05166-8.786Z" fill="#2f2e41"/><circle cx="744.2293" cy="281.74467" r="19.10891" fill="#ffb6b6"/><path d="m763.45334 284.73636-.31565-.631c-.48786-.976-4.52855-9.09-5.03568-11.1763l-5.08517.59812-13.24214.00207 1.84-2.76-4.86466.63457a11.16487 11.16487 0 0 0-4.95728 1.86845 7.59542 7.59542 0 0 0-2.24857 2.31837c-1.73774 2.97576-4.39266 7.84308-4.41933 7.892l-.25386.46563-2.20618-3.71111c-.0289-.144-2.7631-14.40488 6.38721-19.24138a14.72568 14.72568 0 0 1 13.99794-7.9892 6.02569 6.02569 0 0 1 4.09685-2.0365c2.17062-.11322 4.42378 1.027 6.68643 3.40315 3.00569 3.156 7.12226 7.47794 9.61194 12.2768l.68689.97986a7.723 7.723 0 0 1 1.37407 4.795 16.00833 16.00833 0 0 1-.54551 8.16586Z" fill="#2f2e41"/><path d="m790.13329 318.10902-20.77051-5.81573-10.57373-7.84412-20.77051 3.31378-.09035.11737c-3.63663 4.724-9.24319 9.39106-15.202 9.577a20.86743 20.86743 0 0 0-4.54168.65172l-1.99405 36.46019v32.59839a1.91227 1.91227 0 0 1 1.25537 1.39306 26.47554 26.47554 0 0 1-.16309 10.03 16.77328 16.77328 0 0 1-1.09228 3.34961 8.84384 8.84384 0 0 1 0 7.69656c-1.7754 1.69257-1.5459 3.53669 0 5.48032v6.84461c33.71289 28.12823 68.87109 4.04321 68.87109 4.04321l-1.12793-53.541Z" fill="#3f3d56"/><path d="m722.84339 323.11712-4.65864-5.00807-25.67283-2.90788 2.40911-39.43067-13.997-9.98523-6.33857 34.21658c-2.17968 1.88574-2.584 3.7431-1.03173 5.56927-1.74512 3.49017-2.19385 6.32813-1.60059 8.64142l-1.3124 7.08355 47.50332 33.27312Z" fill="#3f3d56"/><path d="M786.34332 452.0477a7.01321 7.01321 0 0 1 3.22305-10.25955l-1.4632-24.87956 11.21176 6.48279-.32941 22.63217a7.0512 7.0512 0 0 1-12.6422 6.02415Z" fill="#ffb6b6"/><path d="m782.33016 324.33113 7.80333-6.22208s7.97888 4.40106 10.40691 12.29216 6.67709 52.80969 6.67709 52.80969l.655 16.72484c.83936 2.65271.61963 5.01917-1.38086 6.90491 3.00684 3.11011 2.55811 5.70041-1.54834 7.74076l-4.259 26.29523-13.36941-2.77525 1.69232-51.85545-10.92609-33.38543ZM248.31493 118.34293h-2.73626V43.38414A43.38409 43.38409 0 0 0 202.19461 0H43.38419A43.3841 43.3841 0 0 0 0 43.384v411.22989a43.38413 43.38413 0 0 0 43.38407 43.38415H202.1944a43.38411 43.38411 0 0 0 43.38423-43.384V171.69988h2.7363Z" fill="#3f3d56"/><path d="M203.94501 11.28705h-20.73a15.3926 15.3926 0 0 1-14.25143 21.20594H77.98315a15.39256 15.39256 0 0 1-14.25143-21.206H44.36984a32.39878 32.39878 0 0 0-32.3988 32.39873v410.6265a32.39877 32.39877 0 0 0 32.39875 32.3988h159.57522a32.39877 32.39877 0 0 0 32.39879-32.39876V43.68578a32.39874 32.39874 0 0 0-32.39879-32.39873Z" fill="#fff"/><path d="M202.41046 165.082a77.9152 77.9152 0 0 1-4.91091 27.32174 75.77638 75.77638 0 0 1-5.42737 11.57165 78.27708 78.27708 0 0 1-135.83 0q-1.04064-1.804-1.97363-3.66191A78.25972 78.25972 0 1 1 202.41046 165.082Z" fill="#f1f1f1"/><circle cx="128.22559" cy="163.33234" r="14.96043" fill="#ff6582"/><path d="M54.26871 200.31351c6.59145-7.12339 15.40317-18.43292 23.66753-10.26107 4.1476 3.85464 10.63882 13.40646 16.85251 7.16193l48.52229-48.52228a9.63289 9.63289 0 0 1 13.7765.24669l40.41211 43.465a75.79948 75.79948 0 0 1-5.42734 11.57165h-135.83Z" fill="#2b4a42"/><path data-name="Path 680" d="M160.87433 323.98993a2.02164 2.02164 0 0 0 0 4.04327h21.21413a2.02163 2.02163 0 1 0 0-4.04327Z" fill="#2b4a42"/><path data-name="Path 680" d="M65.29846 294.29651a2.02163 2.02163 0 1 0 0 4.04326h117.71792a2.02163 2.02163 0 1 0 0-4.04326ZM65.29846 309.14319a2.02164 2.02164 0 0 0 0 4.04327h117.71792a2.02164 2.02164 0 1 0 0-4.04327Z" fill="#e5e5e5"/><path data-name="Path 680" d="M160.87433 419.25651a2.02163 2.02163 0 0 0 0 4.04327h21.21413a2.02163 2.02163 0 1 0 0-4.04327Z" fill="#2b4a42"/><path data-name="Path 680" d="M65.29846 389.56302a2.02163 2.02163 0 0 0 0 4.04327h117.71792a2.02164 2.02164 0 1 0 0-4.04327ZM65.29846 404.40976a2.02163 2.02163 0 0 0 0 4.04326h117.71792a2.02163 2.02163 0 1 0 0-4.04326Z" fill="#e5e5e5"/><path d="m671.0799 227.88699-16.15267-7.30375a13.16292 13.16292 0 0 1-18.57606 11.50233l-70.89127-32.05494a13.16291 13.16291 0 0 1-3.63316-21.54472l-15.08663-6.82173a27.70571 27.70571 0 0 0-36.65988 13.82985L365.40505 505.45116a27.70571 27.70571 0 0 0 13.82987 36.65989h.00006l124.33977 56.22277a27.70571 27.70571 0 0 0 36.65989-13.82986l144.67518-319.95711a27.70569 27.70569 0 0 0-13.82992-36.65986Z" fill="#e4e4e4"/><path d="M527.17729 380.23364a68.12942 68.12942 0 0 1-39.63338-55.40785c-.11662-1.18022-.20111-2.39361-.25116-3.60374a67.1607 67.1607 0 0 1 5.98332-30.85227 67.918 67.918 0 1 1 110.11616 75.81726 66.01086 66.01086 0 0 1-8.43156 7.21159 68.13492 68.13492 0 0 1-67.78338 6.83501Zm55.14157-121.94862a65.99285 65.99285 0 0 0-87.2204 32.90878 65.18224 65.18224 0 0 0-5.80744 29.94363c.04864 1.17413.13032 2.34927.24338 3.49412a65.93877 65.93877 0 0 0 104.25722 47.14419 64.013 64.013 0 0 0 8.17947-6.996 65.94725 65.94725 0 0 0-19.6522-106.49472Z" fill="#fff"/><path fill="#fff" d="m532.00547 255.5879 1.86782-.71547 47.52097 124.0573-1.86781.71549z"/><path fill="#fff" d="m491.66552 341.07953 124.06057-47.51246.71535 1.86786-124.06057 47.51247zM554.20084 477.16127l-117.35579-53.06483a3.60657 3.60657 0 0 1-1.79806-4.76674l11.03974-24.415a3.60658 3.60658 0 0 1 4.76662-1.79839l117.35579 53.06483a3.60657 3.60657 0 0 1 1.79806 4.76674l-11.03974 24.415a3.60657 3.60657 0 0 1-4.76662 1.79839Zm-104.17151-82.22259a1.60413 1.60413 0 0 0-2.12024.8l-11.03974 24.415a1.60411 1.60411 0 0 0 .79972 2.12036l117.35579 53.06487a1.60411 1.60411 0 0 0 2.12024-.8l11.03974-24.415a1.60411 1.60411 0 0 0-.79972-2.12036ZM525.77224 540.03268l-117.35578-53.06482a3.60657 3.60657 0 0 1-1.79806-4.76674l11.03974-24.415a3.60657 3.60657 0 0 1 4.76662-1.79838l117.35579 53.06483a3.60657 3.60657 0 0 1 1.79806 4.76674l-11.03974 24.415a3.60657 3.60657 0 0 1-4.76663 1.79837ZM421.60073 457.8101a1.60411 1.60411 0 0 0-2.12024.8l-11.03974 24.415a1.60411 1.60411 0 0 0 .79972 2.12036l117.35579 53.06486a1.60411 1.60411 0 0 0 2.12024-.8l11.03974-24.415a1.60411 1.60411 0 0 0-.79972-2.12036Z"/><path d="M480.41504 380.95021a78.00323 78.00323 0 0 0-15.21629-32.93431 103.12993 103.12993 0 0 0-27.813-24.49662 123.33239 123.33239 0 0 0-35.60665-14.5992c-15.60987-3.75021-31.73077-4.9719-47.752-4.81772-16.13647.15529-32.22106 1.667-48.2581 3.35119q-3.05751.32109-6.11432.64876c-1.89982.20283-1.92057 3.205 0 3 15.8003-1.68684 31.624-3.345 47.51478-3.85518 15.76131-.506 31.63953.11429 47.15055 3.1219a125.78 125.78 0 0 1 36.93585 13.05848 104.41834 104.41834 0 0 1 28.51954 22.68229 77.12264 77.12264 0 0 1 16.76706 31.23015c.37353 1.45872.69662 2.92895.97975 4.40778.36264 1.89411 3.25462 1.09211 2.89284-.79752Z" fill="#2f2e41"/><path d="m310.36938 286.63386-23.96207 25.48774a1.51428 1.51428 0 0 0 .30359 2.35587l21.618 10.33354c1.73335.82855 3.25713-1.75726 1.51415-2.59042l-21.618-10.33353.30358 2.35586 23.96207-25.48774c1.32175-1.40591-.79553-3.53153-2.12132-2.12132Z" fill="#2f2e41"/><path d="M820.56823 601.73302h-457.294a1.19068 1.19068 0 1 1 0-2.38137h457.294a1.19068 1.19068 0 1 1 0 2.38137Z" fill="#cacaca"/></svg>